<svg xmlns="http://www.w3.org/2000/svg" viewBox="0 0 62.65 63.85"><defs><style>.a{fill:#ffffff;}</style></defs><g transform="translate(0 0)"><g transform="translate(0 0)"><path class="a" d="M67.238,4.344a.94.94,0,0,0-.639-.331L52.7,2.826l-.252-2A.941.941,0,0,0,51.4.008L38.511,1.629a.935.935,0,0,0-.157-.028L20.636.087A.949.949,0,0,0,19.62.944l-.264,3.093L5.632,5.762a.95.95,0,0,0-.816,1.05l7.005,55.72a2.588,2.588,0,0,0,.081.744.949.949,0,0,0,.866.574H58.9a.94.94,0,0,0,.94-.94V61.686l1.821.156a.949.949,0,0,0,1.017-.857L67.456,5.03A.94.94,0,0,0,67.238,4.344ZM11.829,47.516,6.8,7.51l5.03-.632ZM21.413,2.041l8.228.7L21.263,3.8Zm29.29-.05.48,3.821H20.312Zm10.18,57.9L59.839,59.8V32.324a.94.94,0,1,0-1.88,0V61.97H13.709V7.692h44.25V27.936a.94.94,0,1,0,1.88,0V6.752a.94.94,0,0,0-.94-.94h-5.82l-.136-1.078L65.5,5.806Z" transform="translate(-4.809 0)"/></g></g><g transform="translate(32.091 10.825)"><path class="a" d="M279.122,86.806h-5.014a.939.939,0,0,0-.782.419L271.2,90.417a13.9,13.9,0,0,0-8.121-2.608.94.94,0,0,0-.94.94v13.037a.94.94,0,0,0,.94.94h13.037a.94.94,0,0,0,.94-.94,13.94,13.94,0,0,0-4.4-10.168l1.954-2.932h4.511a.94.94,0,1,0,0-1.88Zm-3.985,14.04h-11.12V89.725a12.025,12.025,0,0,1,6.136,2.258l-.839,1.258a.94.94,0,1,0,1.564,1.043l.718-1.077A12.064,12.064,0,0,1,275.138,100.846Z" transform="translate(-262.137 -86.806)"/></g><g transform="translate(15.042 15.839)"><g transform="translate(0)"><path class="a" d="M159.464,153.087h-8.5l-1.5-2.4a13.93,13.93,0,0,0,3.923-9.7.94.94,0,0,0-.94-.94h-12.1v-12.1a.94.94,0,0,0-.94-.94,13.977,13.977,0,1,0,8.638,24.958l1.6,2.554a.94.94,0,0,0,.8.442h9.025a.94.94,0,0,0,0-1.88Zm-13.242-7.581a.94.94,0,1,0-1.595,1l2.415,3.864a12.094,12.094,0,1,1-8.575-21.436v12.06a.94.94,0,0,0,.94.94h12.06a12.05,12.05,0,0,1-3.038,7.109Z" transform="translate(-125.43 -127.013)"/></g></g><g transform="translate(12.034 46.927)"><g transform="translate(0)"><path class="a" d="M110.269,376.3h-8.023a.94.94,0,1,0,0,1.88h8.023a.94.94,0,1,0,0-1.88Z" transform="translate(-101.306 -376.3)"/></g></g><g transform="translate(24.068 46.927)"><path class="a" d="M206.768,376.3h-8.023a.94.94,0,0,0,0,1.88h8.023a.94.94,0,1,0,0-1.88Z" transform="translate(-197.805 -376.3)"/></g><g transform="translate(12.034 51.941)"><g transform="translate(0)"><path class="a" d="M115.283,416.508H102.246a.94.94,0,1,0,0,1.88h13.037a.94.94,0,1,0,0-1.88Z" transform="translate(-101.306 -416.508)"/></g></g><g transform="translate(29.082 51.941)"><g transform="translate(0)"><path class="a" d="M241.961,416.508h-3.009a.94.94,0,1,0,0,1.88h3.009a.94.94,0,1,0,0-1.88Z" transform="translate(-238.012 -416.508)"/></g></g><g transform="translate(12.034 56.955)"><g transform="translate(0)"><path class="a" d="M106.257,456.715h-4.011a.94.94,0,1,0,0,1.88h4.011a.94.94,0,1,0,0-1.88Z" transform="translate(-101.306 -456.715)"/></g></g><g transform="translate(20.057 56.955)"><path class="a" d="M178.613,456.715H166.579a.94.94,0,1,0,0,1.88h12.034a.94.94,0,1,0,0-1.88Z" transform="translate(-165.639 -456.715)"/></g></svg>