<?xml version="1.0" encoding="iso-8859-1"?>
<!-- Generator: Adobe Illustrator 19.0.0, SVG Export Plug-In . SVG Version: 6.00 Build 0)  -->
<svg xmlns="http://www.w3.org/2000/svg" xmlns:xlink="http://www.w3.org/1999/xlink" version="1.1" id="Capa_1" x="0px" y="0px" viewBox="0 0 511.999 511.999" style="enable-background:new 0 0 511.999 511.999;" xml:space="preserve" width="512px" height="512px">
<g>
	<g>
		<path d="M506,35.134c-3.777-2.833-8.669-3.722-13.2-2.4L109.258,144.601H15c-8.284,0-15,6.716-15,15v160.666    c0,8.284,6.716,15,15,15h86.456c-3.331,10.707-5.056,21.93-5.056,33.2c0,61.426,49.974,111.399,111.399,111.399    c28.156,0,55.033-10.531,75.68-29.653c16.036-14.853,27.206-33.833,32.407-54.68l176.913,51.6c1.381,0.403,2.794,0.6,4.199,0.6    c3.209,0,6.374-1.03,9.001-3c3.777-2.833,6-7.279,6-12v-385.6C512,42.413,509.777,37.967,506,35.134z M207.8,449.866    c-44.884,0-81.399-36.516-81.399-81.399c0-9.31,1.521-18.309,4.528-26.879l156.105,45.531    C278.515,423.128,245.787,449.866,207.8,449.866z M482,412.733l-173.846-50.705c-0.046-0.014-0.092-0.027-0.138-0.04    l-181.224-52.857c-0.067-0.02-0.135-0.04-0.202-0.059l-10.99-3.206c-1.364-0.398-2.778-0.6-4.2-0.6H30V174.601h81.4    c1.422,0,2.836-0.202,4.2-0.6L482,67.134V412.733z" fill="#FFFFFF"/>
	</g>
</g>
<g>
</g>
<g>
</g>
<g>
</g>
<g>
</g>
<g>
</g>
<g>
</g>
<g>
</g>
<g>
</g>
<g>
</g>
<g>
</g>
<g>
</g>
<g>
</g>
<g>
</g>
<g>
</g>
<g>
</g>
</svg>
