<svg xmlns="http://www.w3.org/2000/svg" viewBox="0 0 95.541 84.569">
  <g id="hexagonal-interconnections" transform="translate(0 -20.11)">
    <path id="Path_1217" data-name="Path 1217" d="M258.208,218.789a9.557,9.557,0,0,1,4.683,2.8l11.387-19.723a9.547,9.547,0,0,1-4.722-2.733Z" transform="translate(-187.768 -130.186)"/>
    <path id="Path_1218" data-name="Path 1218" d="M49.178,71.573a9.558,9.558,0,0,1-4.683-2.8L33.108,88.494a9.546,9.546,0,0,1,4.722,2.733Z" transform="translate(-24.076 -35.387)"/>
    <path id="Path_1219" data-name="Path 1219" d="M258.208,71.572l11.347,19.655a9.546,9.546,0,0,1,4.722-2.733L262.891,68.771A9.557,9.557,0,0,1,258.208,71.572Z" transform="translate(-187.768 -35.386)"/>
    <path id="Path_1220" data-name="Path 1220" d="M49.177,218.789,37.829,199.134a9.549,9.549,0,0,1-4.722,2.733L44.494,221.59A9.557,9.557,0,0,1,49.177,218.789Z" transform="translate(-24.075 -130.186)"/>
    <path id="Path_1221" data-name="Path 1221" d="M91.664,96.99l5.571-3.642,4.781,8.282a9.544,9.544,0,0,1,3.569-2l-4.921-8.523,5.638-3.687V99.442a9.514,9.514,0,0,1,4.092,0v-14.7l10.283-6.724a9.514,9.514,0,0,1,0-9.43l-10.283-6.724v-14.7a9.514,9.514,0,0,1-4.092,0V59.189l-5.855-3.828,4.848-8.477a9.565,9.565,0,0,1-3.5-2.115l-4.773,8.348-5.352-3.5,9.119-5.963A9.52,9.52,0,0,1,99.2,35.112H76.849A9.519,9.519,0,0,1,75.2,43.74l8.988,5.878L78.76,53.167l-4.728-8.189a9.54,9.54,0,0,1-3.569,2l4.867,8.43-5.78,3.78V47.206a9.515,9.515,0,0,1-4.092-.087V61.865L55.317,68.5a9.516,9.516,0,0,1,0,9.617l10.14,6.63V99.489a9.515,9.515,0,0,1,4.092-.087V87.419l5.714,3.737-4.839,8.463A9.548,9.548,0,0,1,74,101.6L78.694,93.4l5.492,3.591L75.2,102.868a9.519,9.519,0,0,1,1.651,8.628H99.2a9.52,9.52,0,0,1,1.584-8.543Zm18.73-30.236,6.888,4.5h-6.888Zm0,8.6h6.888l-6.888,4.5Zm-44.937,4.5-6.888-4.5h6.888Zm0-8.6H58.569l6.888-4.5ZM106.3,82.53l-7.687,5.026L91.568,75.35H106.3v7.18Zm-7.89-23.611,7.89,5.159v7.18H91.356ZM77.824,40.567h20.2l-10.1,6.605Zm10.1,11.495,7.055,4.614L87.917,69.028,80.809,56.715ZM69.549,64.078l7.83-5.12,7.1,12.3H69.549ZM77.3,87.6,69.549,82.53V75.35H84.3ZM80.73,89.84l7.2-12.6L95.185,89.8l-7.26,4.747Zm-2.906,16.2,10.1-6.605,10.1,6.605Z" transform="translate(-40.226 -10.909)"/>
    <circle id="Ellipse_39" data-name="Ellipse 39" cx="6.82" cy="6.82" r="6.82" transform="translate(20.627 20.11)"/>
    <circle id="Ellipse_40" data-name="Ellipse 40" cx="6.82" cy="6.82" r="6.82" transform="translate(61.274 20.11)"/>
    <circle id="Ellipse_41" data-name="Ellipse 41" cx="6.82" cy="6.82" r="6.82" transform="translate(20.627 91.038)"/>
    <circle id="Ellipse_42" data-name="Ellipse 42" cx="6.82" cy="6.82" r="6.82" transform="translate(61.274 91.038)"/>
    <circle id="Ellipse_43" data-name="Ellipse 43" cx="6.82" cy="6.82" r="6.82" transform="translate(0 55.574)"/>
    <circle id="Ellipse_44" data-name="Ellipse 44" cx="6.82" cy="6.82" r="6.82" transform="translate(81.901 55.574)"/>
  </g>
</svg>
