<svg xmlns="http://www.w3.org/2000/svg" viewBox="0 0 100.952 96.417">
  <g id="presentation" transform="translate(0 -11.502)">
    <g id="Group_319" data-name="Group 319" transform="translate(0 11.502)">
      <g id="Group_318" data-name="Group 318" transform="translate(0 0)">
        <path id="Path_1226" data-name="Path 1226" d="M96.429,16.309H52.737V13.763a2.261,2.261,0,1,0-4.523,0v2.545H4.523A4.528,4.528,0,0,0,0,20.832v4.2a4.528,4.528,0,0,0,4.523,4.523h.615v50.83A4.528,4.528,0,0,0,9.66,84.9H48.215v6.637L31.456,103.833a2.261,2.261,0,0,0,2.675,3.647L48.215,97.15v8.507a2.261,2.261,0,1,0,4.523,0V97.15L66.82,107.48a2.261,2.261,0,1,0,2.675-3.647L52.737,91.541V84.9H91.291a4.528,4.528,0,0,0,4.523-4.523V29.551h.615a4.528,4.528,0,0,0,4.523-4.523v-4.2A4.528,4.528,0,0,0,96.429,16.309ZM91.291,80.381H9.66V29.551H91.292v50.83Zm5.138-55.353H4.523v-4.2H96.429v4.2Z" transform="translate(0 -11.502)"/>
      </g>
    </g>
    <g id="Group_321" data-name="Group 321" transform="translate(30.755 36.1)">
      <g id="Group_320" data-name="Group 320" transform="translate(0 0)">
        <path id="Path_1227" data-name="Path 1227" d="M175.659,136.254a2.035,2.035,0,0,0-2.035,2.035V153.9H158.016a2.035,2.035,0,0,0-2.035,2.035,19.678,19.678,0,1,0,19.678-19.678Zm0,35.285a15.631,15.631,0,0,1-15.475-13.572h15.475a2.035,2.035,0,0,0,2.035-2.035V140.457a15.608,15.608,0,0,1-2.035,31.083Z" transform="translate(-155.981 -136.254)"/>
      </g>
    </g>
    <g id="Group_323" data-name="Group 323" transform="translate(28.65 33.994)">
      <g id="Group_322" data-name="Group 322">
        <path id="Path_1228" data-name="Path 1228" d="M160.2,125.575a14.912,14.912,0,0,0-14.894,14.9,2.035,2.035,0,0,0,2.035,2.035H160.2a2.035,2.035,0,0,0,2.035-2.035V127.61A2.035,2.035,0,0,0,160.2,125.575Zm-2.035,12.861h-8.6a10.855,10.855,0,0,1,8.6-8.6Z" transform="translate(-145.306 -125.575)"/>
      </g>
    </g>
  </g>
</svg>
