<svg id="economic-investment" xmlns="http://www.w3.org/2000/svg" viewBox="0 0 102.274 102.274">
  <defs>
    <style>
      .cls-1 {
        fill: #707070;
      }
    </style>
  </defs>
  <g id="Layer_1_1_">
    <g id="Group_324" data-name="Group 324">
      <path id="Path_1230" data-name="Path 1230" class="cls-1" d="M16.04,19.227H4.65A4.651,4.651,0,0,0,0,23.877V75.014a4.65,4.65,0,0,0,4.65,4.648H16.04a4.649,4.649,0,0,0,4.648-4.648V23.877A4.649,4.649,0,0,0,16.04,19.227Z" transform="translate(0 22.612)"/>
      <path id="Path_1231" data-name="Path 1231" class="cls-1" d="M28.538,25.635H17.148a4.649,4.649,0,0,0-4.65,4.65V67.474a4.648,4.648,0,0,0,4.65,4.65H28.538a4.649,4.649,0,0,0,4.648-4.65V30.285A4.649,4.649,0,0,0,28.538,25.635Z" transform="translate(14.698 30.148)"/>
      <path id="Path_1232" data-name="Path 1232" class="cls-1" d="M41.032,25.635H29.643a4.649,4.649,0,0,0-4.648,4.65V67.474a4.648,4.648,0,0,0,4.648,4.65H41.032a4.649,4.649,0,0,0,4.65-4.65V30.285A4.649,4.649,0,0,0,41.032,25.635Z" transform="translate(29.395 30.148)"/>
      <path id="Path_1233" data-name="Path 1233" class="cls-1" d="M53.53,19.227H42.141a4.649,4.649,0,0,0-4.648,4.65V75.014a4.647,4.647,0,0,0,4.648,4.648H53.53a4.652,4.652,0,0,0,4.65-4.648V23.877A4.651,4.651,0,0,0,53.53,19.227Z" transform="translate(44.093 22.612)"/>
      <path id="Path_1234" data-name="Path 1234" class="cls-1" d="M24.123,12.87v8.369c2.533-.168,5.2-1.356,5.2-4.143C29.326,14.219,26.4,13.377,24.123,12.87Z" transform="translate(28.37 15.136)"/>
      <path id="Path_1235" data-name="Path 1235" class="cls-1" d="M20.778,10.211c0,2.115,1.573,3.338,4.744,3.973V6.614C22.641,6.7,20.778,8.392,20.778,10.211Z" transform="translate(24.436 7.778)"/>
      <path id="Path_1236" data-name="Path 1236" class="cls-1" d="M37.318,0A25.566,25.566,0,1,0,62.887,25.568,25.6,25.6,0,0,0,37.318,0Zm1.356,40.69v2.618a1.278,1.278,0,1,1-2.535,0V40.69c-7.144-.174-10.7-4.443-10.7-7.784a2.436,2.436,0,0,1,2.618-2.661c4.735,0,1.053,5.834,8.08,6.128V27.538C29.872,26.4,26.077,23.651,26.077,18.96c0-5.747,4.779-8.711,10.062-8.876V7.829a1.278,1.278,0,1,1,2.535,0v2.254c3.295.087,10.06,2.154,10.06,6.3A2.543,2.543,0,0,1,46.064,19c-2.751,0-2.711-4.52-7.39-4.607v8.032C44.254,23.612,49.2,25.259,49.2,31.77,49.2,37.432,44.969,40.3,38.674,40.69Z" transform="translate(13.818)"/>
    </g>
  </g>
</svg>
