<svg xmlns="http://www.w3.org/2000/svg" viewBox="0 0 84.496 84.496">
  <g id="line-chart-for-business" transform="translate(-0.001)">
    <path id="Path_1222" data-name="Path 1222" d="M79.217,21.124A5.2,5.2,0,0,0,74.2,25.085H66.015L77.21,10.16a5.277,5.277,0,1,0-3.275-4.879A5.156,5.156,0,0,0,75.142,8.51L62.714,25.085H52.543a5.2,5.2,0,0,0-5.012-3.961,5.279,5.279,0,0,0-5.281,5.281,5.186,5.186,0,0,0,1.277,3.332L33.75,43.424l-7.406-1.475a5.274,5.274,0,1,0-.511,2.589l6.232,1.248L23,58.468a5.262,5.262,0,1,0,3.4,4.9A5.176,5.176,0,0,0,25.13,60.04L34.9,46.353l7.406,1.48a5.254,5.254,0,0,0,10.5-.3A5.15,5.15,0,0,0,51.6,44.3L64.033,27.725H74.2a5.206,5.206,0,0,0,5.013,3.961,5.281,5.281,0,0,0,0-10.562ZM49.537,42.651a5.2,5.2,0,0,0-6.718,2.589L36.589,44,45.653,31.3a5.082,5.082,0,0,0,6.889-3.579h8.19ZM84.5,79.215V84.5H0V0H5.282V79.215Z"/>
  </g>
</svg>
