<?xml version="1.0"?>
<svg xmlns="http://www.w3.org/2000/svg" height="512px" viewBox="0 -24 480 480" width="512px"><path d="m440 0h-400c-22.082031.0273438-39.9726562 17.917969-40 40v256c.0273438 22.082031 17.917969 39.972656 40 40h150.9375l-6 48h-24.9375c-4.417969 0-8 3.582031-8 8v32c0 4.417969 3.582031 8 8 8h160c4.417969 0 8-3.582031 8-8v-32c0-4.417969-3.582031-8-8-8h-24.9375l-6-48h150.9375c22.082031-.027344 39.972656-17.917969 40-40v-256c-.027344-22.082031-17.917969-39.9726562-40-40zm-400 16h400c13.253906 0 24 10.746094 24 24v216h-448v-216c0-13.253906 10.746094-24 24-24zm272 400h-144v-16h144zm-33.0625-32h-77.875l6-48h65.875zm161.0625-64h-400c-13.253906 0-24-10.746094-24-24v-24h448v24c0 13.253906-10.746094 24-24 24zm0 0" fill="#FFFFFF"/><path d="m418.320312 290.320312c-1.464843 1.53125-2.292968 3.5625-2.320312 5.679688 0 4.417969 3.582031 8 8 8s8-3.582031 8-8c.019531-3.25-1.929688-6.1875-4.933594-7.433594-3-1.246094-6.457031-.554687-8.746094 1.753906zm0 0" fill="#FFFFFF"/><path d="m56 160h20.671875l.40625.984375-14.613281 14.617187c-3.125 3.121094-3.125 8.1875 0 11.308594l22.625 22.625c3.121094 3.125 8.1875 3.125 11.308594 0l14.617187-14.613281.984375.40625v20.671875c0 4.417969 3.582031 8 8 8h32c4.417969 0 8-3.582031 8-8v-20.671875l.984375-.40625 14.617187 14.613281c3.121094 3.125 8.1875 3.125 11.308594 0l22.625-22.625c3.125-3.121094 3.125-8.1875 0-11.308594l-14.613281-14.617187.40625-.984375h20.671875c4.417969 0 8-3.582031 8-8v-32c0-4.417969-3.582031-8-8-8h-20.671875l-.40625-.984375 14.613281-14.617187c3.125-3.121094 3.125-8.1875 0-11.308594l-22.625-22.625c-3.121094-3.125-8.1875-3.125-11.308594 0l-14.617187 14.613281-.984375-.40625v-20.671875c0-4.417969-3.582031-8-8-8h-32c-4.417969 0-8 3.582031-8 8v20.671875l-.984375.40625-14.617187-14.613281c-3.121094-3.125-8.1875-3.125-11.308594 0l-22.625 22.625c-3.125 3.121094-3.125 8.1875 0 11.308594l14.613281 14.617187-.40625.984375h-20.671875c-4.417969 0-8 3.582031-8 8v32c0 4.417969 3.582031 8 8 8zm8-32h18.351562c3.535157 0 6.652344-2.324219 7.664063-5.710938.933594-3.160156 2.191406-6.214843 3.753906-9.113281 1.6875-3.113281 1.128907-6.96875-1.378906-9.472656l-12.957031-12.960937 11.308594-11.308594 12.960937 12.957031c2.503906 2.507813 6.359375 3.066406 9.472656 1.378906 2.898438-1.5625 5.953125-2.820312 9.113281-3.753906 3.386719-1.011719 5.710938-4.128906 5.710938-7.664063v-18.351562h16v18.351562c0 3.535157 2.324219 6.652344 5.710938 7.664063 3.160156.933594 6.214843 2.191406 9.113281 3.753906 3.113281 1.6875 6.96875 1.128907 9.472656-1.378906l12.960937-12.957031 11.308594 11.308594-12.957031 12.960937c-2.507813 2.503906-3.066406 6.359375-1.378906 9.472656 1.5625 2.898438 2.820312 5.953125 3.753906 9.113281 1.011719 3.386719 4.128906 5.710938 7.664063 5.710938h18.351562v16h-18.351562c-3.535157 0-6.652344 2.324219-7.664063 5.710938-.933594 3.160156-2.191406 6.214843-3.753906 9.113281-1.6875 3.113281-1.128907 6.96875 1.378906 9.472656l12.957031 12.960937-11.308594 11.308594-12.960937-12.957031c-2.503906-2.507813-6.359375-3.066406-9.472656-1.378906-2.898438 1.5625-5.953125 2.820312-9.113281 3.753906-3.386719 1.011719-5.710938 4.128906-5.710938 7.664063v18.351562h-16v-18.351562c0-3.535157-2.324219-6.652344-5.710938-7.664063-3.160156-.933594-6.214843-2.191406-9.113281-3.753906-3.113281-1.6875-6.96875-1.128907-9.472656 1.378906l-12.960937 12.957031-11.308594-11.308594 12.957031-12.960937c2.507813-2.503906 3.066406-6.359375 1.378906-9.472656-1.5625-2.898438-2.820312-5.953125-3.753906-9.113281-1.011719-3.386719-4.128906-5.710938-7.664063-5.710938h-18.351562zm0 0" fill="#FFFFFF"/><path d="m136 168c17.671875 0 32-14.328125 32-32s-14.328125-32-32-32-32 14.328125-32 32 14.328125 32 32 32zm0-48c8.835938 0 16 7.164062 16 16s-7.164062 16-16 16-16-7.164062-16-16 7.164062-16 16-16zm0 0" fill="#FFFFFF"/><path d="m267.3125 72h44.6875v-16h-48c-2.121094 0-4.15625.84375-5.65625 2.34375l-24 24 11.3125 11.3125zm0 0" fill="#FFFFFF"/><path d="m328 40h16v16h-16zm0 0" fill="#FFFFFF"/><path d="m360 40h32v16h-32zm0 0" fill="#FFFFFF"/><path d="m328 72h64v16h-64zm0 0" fill="#FFFFFF"/><path d="m264 200h48v-16h-44.6875l-21.65625-21.65625-11.3125 11.3125 24 24c1.5 1.5 3.535156 2.34375 5.65625 2.34375zm0 0" fill="#FFFFFF"/><path d="m328 168h48v16h-48zm0 0" fill="#FFFFFF"/><path d="m328 200h16v16h-16zm0 0" fill="#FFFFFF"/><path d="m360 200h40v16h-40zm0 0" fill="#FFFFFF"/></svg>
